name rise31.4854peak64.571fall78.6902.mot
datacolumns 19
datarows 23
range 16.06161500000000 16.09827000000000
endheader
time	ground_force1_vx	ground_force1_vy	ground_force1_vz	ground_force1_px	ground_force1_py	ground_force1_pz	ground_force2_vx	ground_force2_vy	ground_force2_vz	ground_force2_px	ground_force2_py	ground_force2_pz	ground_torque1_x	ground_torque1_y	ground_torque1_z	ground_torque2_x	ground_torque2_y	ground_torque2_z	
16.06161500000000	-52.85731700000000	788.67534699999999	59.57033300000000	0.09602600000000	0.00000000000000	0.10250900000000	-15.81722400000000	65.58971800000000	16.24570100000000	0.36189100000000	0.00000000000000	-0.06833200000000	0.00000000000000	21.75075500000000	0.00000000000000	0.00000000000000	10.17276300000000	0.00000000000000	
16.06327100000000	-52.87593200000000	785.17711399999996	59.00656900000000	0.09576400000000	0.00000000000000	0.10247300000000	-16.05430200000000	70.67621900000000	17.01249200000000	0.36505300000000	0.00000000000000	-0.06862400000000	0.00000000000000	21.60998700000000	0.00000000000000	0.00000000000000	10.79074100000000	0.00000000000000	
16.06494500000000	-52.90298600000000	781.58371899999997	58.41731800000000	0.09551000000000	0.00000000000000	0.10243300000000	-16.08552600000000	75.54170700000000	17.63844700000000	0.36800100000000	0.00000000000000	-0.06891800000000	0.00000000000000	21.46888900000000	0.00000000000000	0.00000000000000	11.33271100000000	0.00000000000000	
16.06660900000000	-52.93906100000000	777.89691700000003	57.80323600000000	0.09526400000000	0.00000000000000	0.10238700000000	-15.93039600000000	80.21695200000001	18.13438100000000	0.37075200000000	0.00000000000000	-0.06921400000000	0.00000000000000	21.32755300000000	0.00000000000000	0.00000000000000	11.80282400000000	0.00000000000000	
16.06827400000000	-52.98469400000000	774.11842600000000	57.16501300000000	0.09502500000000	0.00000000000000	0.10233600000000	-15.61270700000000	84.74563999999999	18.51495300000000	0.37332100000000	0.00000000000000	-0.06951200000000	0.00000000000000	21.18606600000000	0.00000000000000	0.00000000000000	12.20784500000000	0.00000000000000	
16.06993900000000	-53.04038000000000	770.24991599999998	56.50337000000000	0.09479300000000	0.00000000000000	0.10227900000000	-15.15827700000000	89.17926900000001	18.79695500000000	0.37572100000000	0.00000000000000	-0.06981400000000	0.00000000000000	21.04450400000000	0.00000000000000	0.00000000000000	12.55616500000000	0.00000000000000	
16.07162300000000	-53.10656300000000	766.29300000000001	55.81905700000000	0.09456600000000	0.00000000000000	0.10221700000000	-14.59290300000000	93.57228400000000	18.99772400000000	0.37796400000000	0.00000000000000	-0.07011900000000	0.00000000000000	20.90293300000000	0.00000000000000	0.00000000000000	12.85685600000000	0.00000000000000	
16.07327200000000	-53.18363500000000	762.24923000000001	55.11285100000000	0.09434300000000	0.00000000000000	0.10214900000000	-13.94065300000000	97.97779400000000	19.13378100000000	0.38006000000000	0.00000000000000	-0.07042700000000	0.00000000000000	20.76141200000000	0.00000000000000	0.00000000000000	13.11882700000000	0.00000000000000	
16.07494300000000	-53.27193500000000	758.12008700000001	54.38555300000000	0.09412500000000	0.00000000000000	0.10207600000000	-13.22258600000000	102.44410600000000	19.21976500000000	0.38201900000000	0.00000000000000	-0.07073800000000	0.00000000000000	20.61998700000000	0.00000000000000	0.00000000000000	13.35014600000000	0.00000000000000	
16.07660600000000	-53.37174000000000	753.90697799999998	53.63798500000000	0.09390900000000	0.00000000000000	0.10199700000000	-12.45590700000000	107.01220700000000	19.26769500000000	0.38384900000000	0.00000000000000	-0.07105300000000	0.00000000000000	20.47869800000000	0.00000000000000	0.00000000000000	13.55754700000000	0.00000000000000	
16.07827800000000	-53.48327000000000	749.61122999999998	52.87098900000000	0.09369600000000	0.00000000000000	0.10191300000000	-11.65356500000000	111.71420600000000	19.28655700000000	0.38555800000000	0.00000000000000	-0.07137100000000	0.00000000000000	20.33757100000000	0.00000000000000	0.00000000000000	13.74611600000000	0.00000000000000	
16.07993700000000	-53.60667900000000	745.23408199999994	52.08542400000000	0.09348300000000	0.00000000000000	0.10182300000000	-10.82422500000000	116.57269599999999	19.28219200000000	0.38715300000000	0.00000000000000	-0.07169300000000	0.00000000000000	20.19662500000000	0.00000000000000	0.00000000000000	13.91917900000000	0.00000000000000	
16.08161400000000	-53.74205300000000	740.77668400000005	51.28216100000000	0.09327100000000	0.00000000000000	0.10172700000000	-9.97256500000000	121.60090599999999	19.25743300000000	0.38863900000000	0.00000000000000	-0.07201700000000	0.00000000000000	20.05587000000000	0.00000000000000	0.00000000000000	14.07832600000000	0.00000000000000	
16.08327700000000	-53.88941300000000	736.24009100000001	50.46208500000000	0.09305900000000	0.00000000000000	0.10162500000000	-9.09980700000000	126.80349500000000	19.21244500000000	0.39002300000000	0.00000000000000	-0.07234500000000	0.00000000000000	19.91530500000000	0.00000000000000	0.00000000000000	14.22358300000000	0.00000000000000	
16.08494300000000	-54.04870600000000	731.62526200000002	49.62608900000000	0.09284500000000	0.00000000000000	0.10151800000000	-8.20440400000000	132.17779999999999	19.14519900000000	0.39130900000000	0.00000000000000	-0.07267500000000	0.00000000000000	19.77491900000000	0.00000000000000	0.00000000000000	14.35366100000000	0.00000000000000	
16.08662400000000	-54.21980700000000	726.93305499999997	48.77507300000000	0.09262900000000	0.00000000000000	0.10140500000000	-7.28279800000000	137.71537599999999	19.05202500000000	0.39250300000000	0.00000000000000	-0.07300800000000	0.00000000000000	19.63469300000000	0.00000000000000	0.00000000000000	14.46626600000000	0.00000000000000	
16.08827200000000	-54.40251500000000	722.16422899999998	47.90994500000000	0.09241000000000	0.00000000000000	0.10128600000000	-6.33018800000000	143.40364099999999	18.92818000000000	0.39360900000000	0.00000000000000	-0.07334300000000	0.00000000000000	19.49459900000000	0.00000000000000	0.00000000000000	14.55843500000000	0.00000000000000	
16.08993600000000	-54.59655500000000	717.31943699999999	47.03161100000000	0.09218600000000	0.00000000000000	0.10116200000000	-5.34124300000000	149.22749700000000	18.76839800000000	0.39463000000000	0.00000000000000	-0.07368100000000	0.00000000000000	19.35459900000000	0.00000000000000	0.00000000000000	14.62685700000000	0.00000000000000	
16.09162200000000	-54.80157300000000	712.39923199999998	46.14098300000000	0.09195800000000	0.00000000000000	0.10103200000000	-4.31071500000000	155.17080999999999	18.56737700000000	0.39557100000000	0.00000000000000	-0.07402000000000	0.00000000000000	19.21464600000000	0.00000000000000	0.00000000000000	14.66817200000000	0.00000000000000	
16.09327600000000	-55.01713500000000	707.40406299999995	45.23896800000000	0.09172500000000	0.00000000000000	0.10089600000000	-3.23393500000000	161.21766500000001	18.32018400000000	0.39643400000000	0.00000000000000	-0.07436100000000	0.00000000000000	19.07468600000000	0.00000000000000	0.00000000000000	14.67921700000000	0.00000000000000	
16.09494200000000	-55.24273100000000	702.33427500000005	44.32647300000000	0.09148400000000	0.00000000000000	0.10075500000000	-2.10717300000000	167.35334200000000	18.02255700000000	0.39722300000000	0.00000000000000	-0.07470300000000	0.00000000000000	18.93465600000000	0.00000000000000	0.00000000000000	14.65722100000000	0.00000000000000	
16.09661400000000	-55.47777000000000	697.19011399999999	43.40440000000000	0.09123700000000	0.00000000000000	0.10060800000000	-0.92785600000000	173.56501100000000	17.67111300000000	0.39794100000000	0.00000000000000	-0.07504600000000	0.00000000000000	18.79448400000000	0.00000000000000	0.00000000000000	14.59994100000000	0.00000000000000	
16.09827000000000	-55.72158100000000	691.97172699999999	42.47364700000000	0.09098200000000	0.00000000000000	0.10045500000000	0.30533000000000	179.84213299999999	17.26346000000000	0.39859100000000	0.00000000000000	-0.07538900000000	0.00000000000000	18.65409100000000	0.00000000000000	0.00000000000000	14.50573300000000	0.00000000000000	
